<svg width="742.24501953125px" height="121.40498046875px" xmlns="http://www.w3.org/2000/svg" viewBox="-121.12250976562501 14.297509765625001 742.24501953125 121.40498046875" style="background: rgba(0, 0, 0, 0);" preserveAspectRatio="xMidYMid"><defs><linearGradient id="editing-outline-gradient" x1="-0.41354545764260087" x2="1.4135454576426008" y1="0.09326335692419985" y2="0.9067366430758002"><stop offset="0" stop-color="#ee4208"></stop><stop offset="1" stop-color="#4139ff"></stop></linearGradient><filter id="editing-outline" x="-100%" y="-100%" width="300%" height="300%"><feMorphology in="SourceGraphic" operator="dilate" radius="1" result="outline"></feMorphology><feComposite operator="out" in="outline" in2="SourceAlpha"></feComposite></filter></defs><g filter="url(#editing-outline)"><g transform="translate(-17.518739223480225, 104.79000091552734)"><path d="M6.21-31.17L6.21-31.17L6.21-31.17Q4.03-32.83 4.03-36.38L4.03-36.38L4.03-36.38Q4.03-39.94 6.37-41.79L6.37-41.79L6.37-41.79Q8.70-43.65 12.74-43.65L12.74-43.65L12.74-43.65Q15.30-43.65 21.38-42.75L21.38-42.75L25.73-42.11L25.73-42.11Q27.90-41.86 30.18-41.86L30.18-41.86L30.18-41.86Q32.45-41.86 33.98-42.82L33.98-42.82L33.98-42.82Q36.29-40.77 36.29-37.82L36.29-37.82L36.29-37.82Q36.29-34.88 33.66-32.77L33.66-32.77L33.66-32.77Q30.98-30.53 27.52-30.53L27.52-30.53L27.52-30.53Q25.86-30.53 23.17-30.98L23.17-30.98L23.17-30.98Q20.03-21.12 20.03-14.27L20.03-14.27L20.03-14.27Q20.03-7.42 23.49-3.84L23.49-3.84L23.49-3.84Q21.89-0.96 19.52 0.16L19.52 0.16L19.52 0.16Q17.15 1.28 13.60 1.28L13.60 1.28L13.60 1.28Q10.05 1.28 7.84-0.67L7.84-0.67L7.84-0.67Q5.63-2.62 5.63-6.66L5.63-6.66L5.63-6.66Q5.63-11.33 8.19-19.01L8.19-19.01L8.19-19.01Q10.75-26.62 14.59-32.45L14.59-32.45L14.59-32.45Q12.74-32.64 10.82-32.64L10.82-32.64L10.82-32.64Q6.85-32.64 6.21-31.17ZM49.60-3.52L49.60-3.52L49.60-3.52Q47.62 1.28 41.28 1.28L41.28 1.28L41.28 1.28Q38.02 1.28 35.97-0.96L35.97-0.96L35.97-0.96Q34.24-2.94 34.24-4.93L34.24-4.93L34.24-4.93Q34.24-10.11 36.61-20.22L36.61-20.22L38.98-32.64L51.97-33.92L48.06-13.70L48.06-13.70Q46.98-8.96 46.98-7.30L46.98-7.30L46.98-7.30Q46.98-3.65 49.60-3.52ZM40.13-41.54L40.13-41.54L40.13-41.54Q40.13-44.03 42.21-45.38L42.21-45.38L42.21-45.38Q44.29-46.72 47.30-46.72L47.30-46.72L47.30-46.72Q50.30-46.72 52.13-45.38L52.13-45.38L52.13-45.38Q53.95-44.03 53.95-41.54L53.95-41.54L53.95-41.54Q53.95-39.04 51.94-37.76L51.94-37.76L51.94-37.76Q49.92-36.48 46.91-36.48L46.91-36.48L46.91-36.48Q43.90-36.48 42.02-37.76L42.02-37.76L42.02-37.76Q40.13-39.04 40.13-41.54ZM82.11 1.28L82.11 1.28L82.11 1.28Q74.37 1.28 74.37-4.74L74.37-4.74L74.37-4.74Q74.43-6.40 74.94-9.22L74.94-9.22L76.10-15.10L76.10-15.10Q77.82-23.42 77.82-25.28L77.82-25.28L77.82-25.28Q77.82-28.99 75.65-28.99L75.65-28.99L75.65-28.99Q72-28.99 70.08-19.46L70.08-19.46L66.30 0L53.44 1.28L60.10-32.70L70.59-33.92L69.57-27.65L69.57-27.65Q72.58-33.92 81.79-33.92L81.79-33.92L81.79-33.92Q86.27-33.92 88.16-32.03L88.16-32.03L88.16-32.03Q90.05-30.14 90.05-25.92L90.05-25.92L90.05-25.92Q90.05-21.95 88-12.67L88-12.67L88-12.67Q87.04-8.51 87.04-6.94L87.04-6.94L87.04-6.94Q87.04-5.38 87.90-4.48L87.90-4.48L87.90-4.48Q88.77-3.58 90.05-3.46L90.05-3.46L90.05-3.46Q89.41-1.28 87.20 0L87.20 0L87.20 0Q84.99 1.28 82.11 1.28ZM115.52-7.23L115.52-7.23L115.52-7.23Q112.19-3.78 106.11-3.78L106.11-3.78L106.11-3.78Q98.50-3.78 96.90-9.34L96.90-9.34L96.90-9.34Q96.38-11.01 96.38-12.86L96.38-12.86L96.38-12.86Q96.38-14.72 96.77-16.64L96.77-16.64L99.78-32.64L112.77-33.92L109.25-15.30L109.25-15.30Q109.12-14.46 108.93-13.57L108.93-13.57L108.93-13.57Q108.74-12.67 108.74-11.74L108.74-11.74L108.74-11.74Q108.74-10.82 109.06-10.21L109.06-10.21L109.06-10.21Q109.38-9.60 109.82-9.22L109.82-9.22L109.82-9.22Q110.59-8.70 111.97-8.70L111.97-8.70L111.97-8.70Q113.34-8.70 114.53-10.37L114.53-10.37L114.53-10.37Q115.71-12.03 116.29-14.91L116.29-14.91L119.81-32.64L132.42-33.92L127.62-8.77L127.62-8.77Q125.25 3.52 120.38 8.38L120.38 8.38L120.38 8.38Q117.89 10.88 114.66 11.87L114.66 11.87L114.66 11.87Q111.42 12.86 107.26 12.86L107.26 12.86L107.26 12.86Q100.54 12.86 96.70 10.75L96.70 10.75L96.70 10.75Q92.86 8.64 92.86 5.12L92.86 5.12L92.86 5.12Q92.86 2.50 94.85 0.99L94.85 0.99L94.85 0.99Q96.83-0.51 99.90-0.51L99.90-0.51L99.90-0.51Q102.59-0.51 104.64 0.64L104.64 0.64L104.64 0.64Q105.86 1.34 106.43 2.24L106.43 2.24L106.43 2.24Q104.96 3.52 104.96 5.63L104.96 5.63L104.96 5.63Q104.96 8.45 107.52 8.45L107.52 8.45L107.52 8.45Q111.74 8.45 114.18-1.28L114.18-1.28L114.18-1.28Q114.88-4.16 115.52-7.23ZM154.50 0L147.46 0L155.14-42.24L168.90-42.24L178.88-13.18L184.19-42.24L191.30-42.18L183.49 0L168.83 0L159.62-27.97L154.50 0ZM206.85 1.28L206.85 1.28L206.85 1.28Q192.77 1.28 192.77-11.97L192.77-11.97L192.77-11.97Q192.77-21.38 197.95-27.46L197.95-27.46L197.95-27.46Q203.46-33.92 212.99-33.92L212.99-33.92L212.99-33.92Q219.90-33.92 223.42-30.72L223.42-30.72L223.42-30.72Q226.94-27.52 226.94-20.80L226.94-20.80L226.94-20.80Q226.94-10.56 221.44-4.61L221.44-4.61L221.44-4.61Q216.06 1.28 206.85 1.28ZM208.51-26.56L208.51-26.56L208.51-26.56Q207.74-24.83 207.14-22.24L207.14-22.24L207.14-22.24Q206.53-19.65 205.76-15.55L205.76-15.55L205.76-15.55Q204.99-11.46 204.99-6.40L204.99-6.40L204.99-6.40Q204.99-4.74 205.54-3.65L205.54-3.65L205.54-3.65Q206.08-2.56 207.55-2.56L207.55-2.56L207.55-2.56Q209.02-2.56 209.95-3.26L209.95-3.26L209.95-3.26Q210.88-3.97 211.58-5.63L211.58-5.63L211.58-5.63Q212.86-8.58 213.89-14.05L213.89-14.05L213.89-14.05Q214.91-19.52 215.01-21.89L215.01-21.89L215.01-21.89Q215.10-24.26 215.10-26.02L215.10-26.02L215.10-26.02Q215.10-27.78 214.59-28.93L214.59-28.93L214.59-28.93Q214.08-30.08 212.64-30.08L212.64-30.08L212.64-30.08Q211.20-30.08 210.24-29.18L210.24-29.18L210.24-29.18Q209.28-28.29 208.51-26.56ZM250.88-33.92L250.88-33.92L250.88-33.92Q253.18-33.92 254.98-33.41L254.98-33.41L254.98-33.41Q255.04-33.66 255.17-34.37L255.17-34.37L255.49-36.35L255.49-36.35Q255.74-37.63 256.13-39.74L256.13-39.74L257.15-44.80L269.89-46.08L262.78-8.96L262.78-8.96Q262.72-8.58 262.72-7.94L262.72-7.94L262.72-6.91L262.72-6.91Q262.72-5.50 263.42-4.45L263.42-4.45L263.42-4.45Q264.13-3.39 265.28-3.39L265.28-3.39L265.28-3.39Q264-0.38 260.10 0.90L260.10 0.90L260.10 0.90Q258.75 1.28 256.86 1.28L256.86 1.28L256.86 1.28Q254.98 1.28 253.25 0.29L253.25 0.29L253.25 0.29Q251.52-0.70 251.01-2.37L251.01-2.37L251.01-2.37Q249.98-0.70 247.94 0.29L247.94 0.29L247.94 0.29Q245.89 1.28 242.91 1.28L242.91 1.28L242.91 1.28Q239.94 1.28 237.47 0.51L237.47 0.51L237.47 0.51Q235.01-0.26 233.47-1.92L233.47-1.92L233.47-1.92Q230.66-5.18 230.66-12.61L230.66-12.61L230.66-12.61Q230.66-22.21 236.29-28.03L236.29-28.03L236.29-28.03Q241.92-33.92 250.88-33.92ZM250.43-30.08L250.43-30.08L250.43-30.08Q248.06-30.08 246.78-27.52L246.78-27.52L246.78-27.52Q245.50-24.96 244.19-18.62L244.19-18.62L244.19-18.62Q242.88-12.29 242.88-6.59L242.88-6.59L242.88-6.59Q242.88-2.69 245.18-2.69L245.18-2.69L245.18-2.69Q247.23-2.69 248.67-4.74L248.67-4.74L248.67-4.74Q250.11-6.78 250.69-10.18L250.69-10.18L254.14-28.93L254.14-28.93Q252.80-30.08 250.43-30.08ZM296.64-10.82L296.64-10.82L296.64-10.82Q298.24-9.73 298.24-7.33L298.24-7.33L298.24-7.33Q298.24-4.93 297.02-3.39L297.02-3.39L297.02-3.39Q295.81-1.86 293.82-0.83L293.82-0.83L293.82-0.83Q289.73 1.28 285.31 1.28L285.31 1.28L285.31 1.28Q280.90 1.28 278.30 0.32L278.30 0.32L278.30 0.32Q275.71-0.64 273.98-2.43L273.98-2.43L273.98-2.43Q270.59-5.82 270.59-12.03L270.59-12.03L270.59-12.03Q270.59-21.70 275.84-27.58L275.84-27.58L275.84-27.58Q281.47-33.92 291.26-33.92L291.26-33.92L291.26-33.92Q297.34-33.92 300.35-31.36L300.35-31.36L300.35-31.36Q302.59-29.44 302.59-26.30L302.59-26.30L302.59-26.30Q302.59-15.04 283.14-15.04L283.14-15.04L283.14-15.04Q282.88-13.38 282.88-11.97L282.88-11.97L282.88-11.97Q282.88-9.02 284.19-7.90L284.19-7.90L284.19-7.90Q285.50-6.78 287.94-6.78L287.94-6.78L287.94-6.78Q290.37-6.78 292.96-7.90L292.96-7.90L292.96-7.90Q295.55-9.02 296.64-10.82ZM283.58-17.79L283.58-17.79L283.58-17.79Q288.13-17.79 290.75-20.61L290.75-20.61L290.75-20.61Q293.38-23.30 293.38-27.58L293.38-27.58L293.38-27.58Q293.38-29.06 292.83-29.86L292.83-29.86L292.83-29.86Q292.29-30.66 291.20-30.66L291.20-30.66L291.20-30.66Q290.11-30.66 289.18-30.24L289.18-30.24L289.18-30.24Q288.26-29.82 287.30-28.42L287.30-28.42L287.30-28.42Q284.93-25.22 283.58-17.79ZM344.70-9.86L344.70-9.86L344.70-9.86Q345.92-8.32 345.92-5.34L345.92-5.34L345.92-5.34Q345.92-2.37 343.65-0.54L343.65-0.54L343.65-0.54Q341.38 1.28 337.41 1.28L337.41 1.28L337.41 1.28Q335.10 1.28 331.52 0.77L331.52 0.77L331.52 0.77Q324.48-0.32 322.46-0.32L322.46-0.32L322.46-0.32Q320.45-0.32 319.62-0.22L319.62-0.22L319.62-0.22Q318.78-0.13 317.44 0L317.44 0L325.18-42.24L339.20-42.24L332.80-7.04L332.80-7.04Q333.63-6.91 334.40-6.91L334.40-6.91L336.00-6.91L336.00-6.91Q341.38-6.91 344.70-9.86ZM364.16 1.28L364.16 1.28L364.16 1.28Q350.08 1.28 350.08-11.97L350.08-11.97L350.08-11.97Q350.08-21.38 355.26-27.46L355.26-27.46L355.26-27.46Q360.77-33.92 370.30-33.92L370.30-33.92L370.30-33.92Q377.22-33.92 380.74-30.72L380.74-30.72L380.74-30.72Q384.26-27.52 384.26-20.80L384.26-20.80L384.26-20.80Q384.26-10.56 378.75-4.61L378.75-4.61L378.75-4.61Q373.38 1.28 364.16 1.28ZM365.82-26.56L365.82-26.56L365.82-26.56Q365.06-24.83 364.45-22.24L364.45-22.24L364.45-22.24Q363.84-19.65 363.07-15.55L363.07-15.55L363.07-15.55Q362.30-11.46 362.30-6.40L362.30-6.40L362.30-6.40Q362.30-4.74 362.85-3.65L362.85-3.65L362.85-3.65Q363.39-2.56 364.86-2.56L364.86-2.56L364.86-2.56Q366.34-2.56 367.26-3.26L367.26-3.26L367.26-3.26Q368.19-3.97 368.90-5.63L368.90-5.63L368.90-5.63Q370.18-8.58 371.20-14.05L371.20-14.05L371.20-14.05Q372.22-19.52 372.32-21.89L372.32-21.89L372.32-21.89Q372.42-24.26 372.42-26.02L372.42-26.02L372.42-26.02Q372.42-27.78 371.90-28.93L371.90-28.93L371.90-28.93Q371.39-30.08 369.95-30.08L369.95-30.08L369.95-30.08Q368.51-30.08 367.55-29.18L367.55-29.18L367.55-29.18Q366.59-28.29 365.82-26.56ZM392.58-26.75L392.58-26.75L392.58-26.75Q394.75-29.82 398.05-31.87L398.05-31.87L398.05-31.87Q401.34-33.92 405.38-33.92L405.38-33.92L405.38-33.92Q409.41-33.92 411.33-32.64L411.33-32.64L423.87-33.92L419.52-9.34L419.52-9.34Q417.28 3.20 412.54 8.13L412.54 8.13L412.54 8.13Q408 12.80 399.17 12.80L399.17 12.80L399.17 12.80Q392.45 12.80 388.61 10.69L388.61 10.69L388.61 10.69Q384.77 8.58 384.77 5.06L384.77 5.06L384.77 5.06Q384.77 2.43 386.75 0.93L386.75 0.93L386.75 0.93Q388.74-0.58 391.81-0.58L391.81-0.58L391.81-0.58Q394.50-0.58 396.54 0.64L396.54 0.64L396.54 0.64Q397.76 1.28 398.34 2.18L398.34 2.18L398.34 2.18Q396.86 3.46 396.86 5.57L396.86 5.57L396.86 5.57Q396.86 8.32 399.42 8.32L399.42 8.32L399.42 8.32Q403.71 8.32 406.14-1.79L406.14-1.79L406.14-1.79Q406.85-4.54 407.42-7.30L407.42-7.30L407.42-7.30Q404.54-3.78 398.02-3.78L398.02-3.78L398.02-3.78Q393.47-3.78 390.85-5.95L390.85-5.95L390.85-5.95Q388.22-8.13 388.22-13.25L388.22-13.25L388.22-13.25Q388.22-16.45 389.31-20.06L389.31-20.06L389.31-20.06Q390.40-23.68 392.58-26.75ZM400.90-13.06L400.90-13.06L400.90-13.06Q400.90-8.70 403.14-8.70L403.14-8.70L403.14-8.70Q404.67-8.70 406.14-10.37L406.14-10.37L406.14-10.37Q407.30-11.71 407.74-13.70L407.74-13.70L411.01-30.14L411.01-30.14Q410.69-30.21 410.37-30.34L410.37-30.34L410.37-30.34Q409.73-30.59 408.90-30.59L408.90-30.59L408.90-30.59Q404.99-30.59 402.69-24.19L402.69-24.19L402.69-24.19Q400.90-19.20 400.90-13.06ZM430.91-26.75L430.91-26.75L430.91-26.75Q433.09-29.82 436.38-31.87L436.38-31.87L436.38-31.87Q439.68-33.92 443.71-33.92L443.71-33.92L443.71-33.92Q447.74-33.92 449.66-32.64L449.66-32.64L462.21-33.92L457.86-9.34L457.86-9.34Q455.62 3.20 450.88 8.13L450.88 8.13L450.88 8.13Q446.34 12.80 437.50 12.80L437.50 12.80L437.50 12.80Q430.78 12.80 426.94 10.69L426.94 10.69L426.94 10.69Q423.10 8.58 423.10 5.06L423.10 5.06L423.10 5.06Q423.10 2.43 425.09 0.93L425.09 0.93L425.09 0.93Q427.07-0.58 430.14-0.58L430.14-0.58L430.14-0.58Q432.83-0.58 434.88 0.64L434.88 0.64L434.88 0.64Q436.10 1.28 436.67 2.18L436.67 2.18L436.67 2.18Q435.20 3.46 435.20 5.57L435.20 5.57L435.20 5.57Q435.20 8.32 437.76 8.32L437.76 8.32L437.76 8.32Q442.05 8.32 444.48-1.79L444.48-1.79L444.48-1.79Q445.18-4.54 445.76-7.30L445.76-7.30L445.76-7.30Q442.88-3.78 436.35-3.78L436.35-3.78L436.35-3.78Q431.81-3.78 429.18-5.95L429.18-5.95L429.18-5.95Q426.56-8.13 426.56-13.25L426.56-13.25L426.56-13.25Q426.56-16.45 427.65-20.06L427.65-20.06L427.65-20.06Q428.74-23.68 430.91-26.75ZM439.23-13.06L439.23-13.06L439.23-13.06Q439.23-8.70 441.47-8.70L441.47-8.70L441.47-8.70Q443.01-8.70 444.48-10.37L444.48-10.37L444.48-10.37Q445.63-11.71 446.08-13.70L446.08-13.70L449.34-30.14L449.34-30.14Q449.02-30.21 448.70-30.34L448.70-30.34L448.70-30.34Q448.06-30.59 447.23-30.59L447.23-30.59L447.23-30.59Q443.33-30.59 441.02-24.19L441.02-24.19L441.02-24.19Q439.23-19.20 439.23-13.06ZM490.62-10.82L490.62-10.82L490.62-10.82Q492.22-9.73 492.22-7.33L492.22-7.33L492.22-7.33Q492.22-4.93 491.01-3.39L491.01-3.39L491.01-3.39Q489.79-1.86 487.81-0.83L487.81-0.83L487.81-0.83Q483.71 1.28 479.30 1.28L479.30 1.28L479.30 1.28Q474.88 1.28 472.29 0.32L472.29 0.32L472.29 0.32Q469.70-0.64 467.97-2.43L467.97-2.43L467.97-2.43Q464.58-5.82 464.58-12.03L464.58-12.03L464.58-12.03Q464.58-21.70 469.82-27.58L469.82-27.58L469.82-27.58Q475.46-33.92 485.25-33.92L485.25-33.92L485.25-33.92Q491.33-33.92 494.34-31.36L494.34-31.36L494.34-31.36Q496.58-29.44 496.58-26.30L496.58-26.30L496.58-26.30Q496.58-15.04 477.12-15.04L477.12-15.04L477.12-15.04Q476.86-13.38 476.86-11.97L476.86-11.97L476.86-11.97Q476.86-9.02 478.18-7.90L478.18-7.90L478.18-7.90Q479.49-6.78 481.92-6.78L481.92-6.78L481.92-6.78Q484.35-6.78 486.94-7.90L486.94-7.90L486.94-7.90Q489.54-9.02 490.62-10.82ZM477.57-17.79L477.57-17.79L477.57-17.79Q482.11-17.79 484.74-20.61L484.74-20.61L484.74-20.61Q487.36-23.30 487.36-27.58L487.36-27.58L487.36-27.58Q487.36-29.06 486.82-29.86L486.82-29.86L486.82-29.86Q486.27-30.66 485.18-30.66L485.18-30.66L485.18-30.66Q484.10-30.66 483.17-30.24L483.17-30.24L483.17-30.24Q482.24-29.82 481.28-28.42L481.28-28.42L481.28-28.42Q478.91-25.22 477.57-17.79ZM518.78-17.98L518.78-17.98L518.78-17.98Q521.09-22.08 521.09-26.24L521.09-26.24L521.09-26.24Q521.09-28.99 519.10-28.99L519.10-28.99L519.10-28.99Q517.57-28.99 515.97-26.37L515.97-26.37L515.97-26.37Q514.30-23.74 513.79-20.35L513.79-20.35L510.46 0L497.22 1.28L503.74-32.64L514.30-33.92L513.15-27.46L513.15-27.46Q516.29-33.92 523.33-33.92L523.33-33.92L523.33-33.92Q527.04-33.92 529.06-32L529.06-32L529.06-32Q531.07-30.08 531.07-26.14L531.07-26.14L531.07-26.14Q531.07-22.21 528.48-19.71L528.48-19.71L528.48-19.71Q525.89-17.22 521.47-17.22L521.47-17.22L521.47-17.22Q519.55-17.22 518.78-17.98Z" fill="url(#editing-outline-gradient)"></path></g></g><style>text {
  font-size: 64px;
  font-family: Arial Black;
  dominant-baseline: central;
  text-anchor: middle;
}</style></svg>