<svg width="696.6849365234375px" height="157.4872039794922px" xmlns="http://www.w3.org/2000/svg" viewBox="-98.34246826171875 -3.7436019897460966 696.6849365234375 157.4872039794922" style="background: rgba(0, 0, 0, 0);" preserveAspectRatio="xMidYMid"><defs><linearGradient id="editing-rainbow-gradient" x1="0" x2="1" y1="0.5" y2="0.5" gradientUnits="objectBoundingBox"><stop offset="0.00" stop-color="#f00"></stop><stop offset="0.17" stop-color="#f90"></stop><stop offset="0.34" stop-color="#ff4"></stop><stop offset="0.51" stop-color="#9f0"></stop><stop offset="0.68" stop-color="#09f"></stop><stop offset="0.85" stop-color="#00f"></stop><stop offset="1.00" stop-color="#90f"></stop></linearGradient><filter id="editing-rainbow" x="-100%" y="-100%" width="300%" height="300%"><feMorphology operator="dilate" radius="1,2" in="SourceGraphic" result="dilate"></feMorphology><feColorMatrix in="dilate" result="color" type="matrix" values="0.7 0 0 0 0  0 0.7 0 0 0  0 0 0.7 0 0  0 0 0 1 0"></feColorMatrix><feOffset dy="2" result="offset"></feOffset><feGaussianBlur stdDeviation="3"></feGaussianBlur><feOffset dy="3"></feOffset><feColorMatrix result="blur" type="matrix" values="0.7 0 0 0 0  0 0.7 0 0 0  0 0 0.7 0 0  0 0 0 1 0"></feColorMatrix><feMerge><feMergeNode in="blur"></feMergeNode><feMergeNode in="offset"></feMergeNode><feMergeNode in="SourceGraphic"></feMergeNode></feMerge></filter></defs><g filter="url(#editing-rainbow)"><g transform="translate(-0.37000370025634766, 103.54000091552734)"><path d="M14.21-20.35L14.21-10.69L14.21-10.69Q14.21-9.02 15.26-8.32L15.26-8.32L15.26-8.32Q16.32-7.62 18.24-7.62L18.24-7.62L18.24-7.62Q19.20-7.62 20.22-7.78L20.22-7.78L20.22-7.78Q21.25-7.94 22.02-8.19L22.02-8.19L22.02-8.19Q22.59-7.49 23.01-6.62L23.01-6.62L23.01-6.62Q23.42-5.76 23.42-4.54L23.42-4.54L23.42-4.54Q23.42-2.11 21.60-0.58L21.60-0.58L21.60-0.58Q19.78 0.96 15.17 0.96L15.17 0.96L15.17 0.96Q9.54 0.96 6.50-1.60L6.50-1.60L6.50-1.60Q3.46-4.16 3.46-9.92L3.46-9.92L3.46-37.31L3.46-37.31Q4.16-37.50 5.47-37.73L5.47-37.73L5.47-37.73Q6.78-37.95 8.26-37.95L8.26-37.95L8.26-37.95Q11.07-37.95 12.64-36.96L12.64-36.96L12.64-36.96Q14.21-35.97 14.21-32.77L14.21-32.77L14.21-28.67L22.59-28.67L22.59-28.67Q22.98-27.97 23.33-26.91L23.33-26.91L23.33-26.91Q23.68-25.86 23.68-24.58L23.68-24.58L23.68-24.58Q23.68-22.34 22.69-21.34L22.69-21.34L22.69-21.34Q21.70-20.35 20.03-20.35L20.03-20.35L14.21-20.35ZM28.67-39.74L28.67-39.74L28.67-39.74Q28.67-42.18 30.30-43.84L30.30-43.84L30.30-43.84Q31.94-45.50 34.62-45.50L34.62-45.50L34.62-45.50Q37.31-45.50 38.94-43.84L38.94-43.84L38.94-43.84Q40.58-42.18 40.58-39.74L40.58-39.74L40.58-39.74Q40.58-37.31 38.94-35.65L38.94-35.65L38.94-35.65Q37.31-33.98 34.62-33.98L34.62-33.98L34.62-33.98Q31.94-33.98 30.30-35.65L30.30-35.65L30.30-35.65Q28.67-37.31 28.67-39.74ZM40.06-26.11L40.06-0.06L40.06-0.06Q39.36 0.06 37.98 0.29L37.98 0.29L37.98 0.29Q36.61 0.51 35.20 0.51L35.20 0.51L35.20 0.51Q33.79 0.51 32.67 0.32L32.67 0.32L32.67 0.32Q31.55 0.13 30.78-0.45L30.78-0.45L30.78-0.45Q30.02-1.02 29.60-2.02L29.60-2.02L29.60-2.02Q29.18-3.01 29.18-4.61L29.18-4.61L29.18-30.66L29.18-30.66Q29.89-30.78 31.26-31.01L31.26-31.01L31.26-31.01Q32.64-31.23 34.05-31.23L34.05-31.23L34.05-31.23Q35.46-31.23 36.58-31.04L36.58-31.04L36.58-31.04Q37.70-30.85 38.46-30.27L38.46-30.27L38.46-30.27Q39.23-29.70 39.65-28.70L39.65-28.70L39.65-28.70Q40.06-27.71 40.06-26.11L40.06-26.11ZM66.69-4.61L66.69-19.71L66.69-19.71Q66.69-21.70 65.57-22.62L65.57-22.62L65.57-22.62Q64.45-23.55 62.53-23.55L62.53-23.55L62.53-23.55Q61.25-23.55 60-23.23L60-23.23L60-23.23Q58.75-22.91 57.86-22.27L57.86-22.27L57.86-0.06L57.86-0.06Q57.22 0.13 55.84 0.32L55.84 0.32L55.84 0.32Q54.46 0.51 52.99 0.51L52.99 0.51L52.99 0.51Q51.58 0.51 50.46 0.32L50.46 0.32L50.46 0.32Q49.34 0.13 48.58-0.45L48.58-0.45L48.58-0.45Q47.81-1.02 47.39-2.02L47.39-2.02L47.39-2.02Q46.98-3.01 46.98-4.61L46.98-4.61L46.98-23.81L46.98-23.81Q46.98-25.54 47.71-26.62L47.71-26.62L47.71-26.62Q48.45-27.71 49.73-28.61L49.73-28.61L49.73-28.61Q51.90-30.14 55.20-31.10L55.20-31.10L55.20-31.10Q58.50-32.06 62.53-32.06L62.53-32.06L62.53-32.06Q69.76-32.06 73.66-28.90L73.66-28.90L73.66-28.90Q77.57-25.73 77.57-20.10L77.57-20.10L77.57-0.06L77.57-0.06Q76.93 0.13 75.55 0.32L75.55 0.32L75.55 0.32Q74.18 0.51 72.70 0.51L72.70 0.51L72.70 0.51Q71.30 0.51 70.18 0.32L70.18 0.32L70.18 0.32Q69.06 0.13 68.29-0.45L68.29-0.45L68.29-0.45Q67.52-1.02 67.10-2.02L67.10-2.02L67.10-2.02Q66.69-3.01 66.69-4.61L66.69-4.61ZM89.15-7.94L89.15-7.94L89.15-7.94Q88.45-9.54 87.65-11.52L87.65-11.52L87.65-11.52Q86.85-13.50 85.98-16.06L85.98-16.06L85.98-16.06Q85.12-18.62 84.19-21.92L84.19-21.92L84.19-21.92Q83.26-25.22 82.24-29.50L82.24-29.50L82.24-29.50Q83.14-30.40 84.64-31.07L84.64-31.07L84.64-31.07Q86.14-31.74 87.94-31.74L87.94-31.74L87.94-31.74Q90.18-31.74 91.65-30.82L91.65-30.82L91.65-30.82Q93.12-29.89 93.82-27.33L93.82-27.33L98.88-9.73L99.14-9.73L99.14-9.73Q99.90-11.90 100.64-14.46L100.64-14.46L100.64-14.46Q101.38-17.02 102.08-19.74L102.08-19.74L102.08-19.74Q102.78-22.46 103.39-25.18L103.39-25.18L103.39-25.18Q104-27.90 104.45-30.53L104.45-30.53L104.45-30.53Q106.75-31.74 109.50-31.74L109.50-31.74L109.50-31.74Q111.74-31.74 113.22-30.78L113.22-30.78L113.22-30.78Q114.69-29.82 114.69-27.46L114.69-27.46L114.69-27.46Q114.69-25.73 114.24-23.46L114.24-23.46L114.24-23.46Q113.79-21.18 113.06-18.62L113.06-18.62L113.06-18.62Q112.32-16.06 111.33-13.34L111.33-13.34L111.33-13.34Q110.34-10.62 109.25-8L109.25-8L109.25-8Q108.16-5.38 107.01-3.04L107.01-3.04L107.01-3.04Q105.86-0.70 104.77 1.15L104.77 1.15L104.77 1.15Q102.98 4.29 101.44 6.27L101.44 6.27L101.44 6.27Q99.90 8.26 98.50 9.38L98.50 9.38L98.50 9.38Q97.09 10.50 95.68 10.91L95.68 10.91L95.68 10.91Q94.27 11.33 92.74 11.33L92.74 11.33L92.74 11.33Q90.05 11.33 88.38 9.73L88.38 9.73L88.38 9.73Q86.72 8.13 86.40 5.57L86.40 5.57L86.40 5.57Q88.45 3.97 90.50 2.02L90.50 2.02L90.50 2.02Q92.54 0.06 94.21-1.98L94.21-1.98L94.21-1.98Q93.12-2.30 91.87-3.49L91.87-3.49L91.87-3.49Q90.62-4.67 89.15-7.94ZM133.06-11.90L119.36-11.90L119.36-11.90Q118.91-12.61 118.53-13.76L118.53-13.76L118.53-13.76Q118.14-14.91 118.14-16.19L118.14-16.19L118.14-16.19Q118.14-18.56 119.23-19.62L119.23-19.62L119.23-19.62Q120.32-20.67 122.05-20.67L122.05-20.67L135.74-20.67L135.74-20.67Q136.13-19.97 136.54-18.82L136.54-18.82L136.54-18.82Q136.96-17.66 136.96-16.38L136.96-16.38L136.96-16.38Q136.96-14.02 135.87-12.96L135.87-12.96L135.87-12.96Q134.78-11.90 133.06-11.90L133.06-11.90ZM161.92-4.61L161.92-19.71L161.92-19.71Q161.92-21.70 160.80-22.62L160.80-22.62L160.80-22.62Q159.68-23.55 157.76-23.55L157.76-23.55L157.76-23.55Q156.48-23.55 155.23-23.23L155.23-23.23L155.23-23.23Q153.98-22.91 153.09-22.27L153.09-22.27L153.09-0.06L153.09-0.06Q152.45 0.13 151.07 0.32L151.07 0.32L151.07 0.32Q149.70 0.51 148.22 0.51L148.22 0.51L148.22 0.51Q146.82 0.51 145.70 0.32L145.70 0.32L145.70 0.32Q144.58 0.13 143.81-0.45L143.81-0.45L143.81-0.45Q143.04-1.02 142.62-2.02L142.62-2.02L142.62-2.02Q142.21-3.01 142.21-4.61L142.21-4.61L142.21-23.81L142.21-23.81Q142.21-25.54 142.94-26.62L142.94-26.62L142.94-26.62Q143.68-27.71 144.96-28.61L144.96-28.61L144.96-28.61Q147.14-30.14 150.43-31.10L150.43-31.10L150.43-31.10Q153.73-32.06 157.76-32.06L157.76-32.06L157.76-32.06Q164.99-32.06 168.90-28.90L168.90-28.90L168.90-28.90Q172.80-25.73 172.80-20.10L172.80-20.10L172.80-0.06L172.80-0.06Q172.16 0.13 170.78 0.32L170.78 0.32L170.78 0.32Q169.41 0.51 167.94 0.51L167.94 0.51L167.94 0.51Q166.53 0.51 165.41 0.32L165.41 0.32L165.41 0.32Q164.29 0.13 163.52-0.45L163.52-0.45L163.52-0.45Q162.75-1.02 162.34-2.02L162.34-2.02L162.34-2.02Q161.92-3.01 161.92-4.61L161.92-4.61ZM211.71-15.55L211.71-15.55L211.71-15.55Q211.71-11.58 210.50-8.48L210.50-8.48L210.50-8.48Q209.28-5.38 207.07-3.26L207.07-3.26L207.07-3.26Q204.86-1.15 201.79-0.06L201.79-0.06L201.79-0.06Q198.72 1.02 194.94 1.02L194.94 1.02L194.94 1.02Q191.17 1.02 188.10-0.13L188.10-0.13L188.10-0.13Q185.02-1.28 182.82-3.42L182.82-3.42L182.82-3.42Q180.61-5.57 179.39-8.64L179.39-8.64L179.39-8.64Q178.18-11.71 178.18-15.55L178.18-15.55L178.18-15.55Q178.18-19.33 179.39-22.40L179.39-22.40L179.39-22.40Q180.61-25.47 182.82-27.62L182.82-27.62L182.82-27.62Q185.02-29.76 188.10-30.91L188.10-30.91L188.10-30.91Q191.17-32.06 194.94-32.06L194.94-32.06L194.94-32.06Q198.72-32.06 201.79-30.88L201.79-30.88L201.79-30.88Q204.86-29.70 207.07-27.55L207.07-27.55L207.07-27.55Q209.28-25.41 210.50-22.34L210.50-22.34L210.50-22.34Q211.71-19.26 211.71-15.55ZM189.31-15.55L189.31-15.55L189.31-15.55Q189.31-11.65 190.82-9.57L190.82-9.57L190.82-9.57Q192.32-7.49 195.01-7.49L195.01-7.49L195.01-7.49Q197.70-7.49 199.14-9.60L199.14-9.60L199.14-9.60Q200.58-11.71 200.58-15.55L200.58-15.55L200.58-15.55Q200.58-19.39 199.10-21.47L199.10-21.47L199.10-21.47Q197.63-23.55 194.94-23.55L194.94-23.55L194.94-23.55Q192.26-23.55 190.78-21.47L190.78-21.47L190.78-21.47Q189.31-19.39 189.31-15.55ZM215.68-15.55L215.68-15.55L215.68-15.55Q215.68-19.78 216.96-22.88L216.96-22.88L216.96-22.88Q218.24-25.98 220.51-28.03L220.51-28.03L220.51-28.03Q222.78-30.08 225.82-31.07L225.82-31.07L225.82-31.07Q228.86-32.06 232.38-32.06L232.38-32.06L232.38-32.06Q233.66-32.06 234.88-31.84L234.88-31.84L234.88-31.84Q236.10-31.62 236.86-31.30L236.86-31.30L236.86-41.66L236.86-41.66Q237.50-41.86 238.91-42.08L238.91-42.08L238.91-42.08Q240.32-42.30 241.79-42.30L241.79-42.30L241.79-42.30Q243.20-42.30 244.32-42.11L244.32-42.11L244.32-42.11Q245.44-41.92 246.21-41.34L246.21-41.34L246.21-41.34Q246.98-40.77 247.36-39.78L247.36-39.78L247.36-39.78Q247.74-38.78 247.74-37.18L247.74-37.18L247.74-6.85L247.74-6.85Q247.74-3.84 244.93-2.05L244.93-2.05L244.93-2.05Q243.07-0.83 240.13 0.10L240.13 0.10L240.13 0.10Q237.18 1.02 233.34 1.02L233.34 1.02L233.34 1.02Q229.18 1.02 225.89-0.13L225.89-0.13L225.89-0.13Q222.59-1.28 220.32-3.46L220.32-3.46L220.32-3.46Q218.05-5.63 216.86-8.67L216.86-8.67L216.86-8.67Q215.68-11.71 215.68-15.55ZM233.86-23.55L233.86-23.55L233.86-23.55Q230.40-23.55 228.54-21.57L228.54-21.57L228.54-21.57Q226.69-19.58 226.69-15.55L226.69-15.55L226.69-15.55Q226.69-11.58 228.42-9.57L228.42-9.57L228.42-9.57Q230.14-7.55 233.41-7.55L233.41-7.55L233.41-7.55Q234.56-7.55 235.49-7.90L235.49-7.90L235.49-7.90Q236.42-8.26 236.93-8.70L236.93-8.70L236.93-22.78L236.93-22.78Q235.65-23.55 233.86-23.55ZM270.98 1.02L270.98 1.02L270.98 1.02Q267.20 1.02 263.97-0.03L263.97-0.03L263.97-0.03Q260.74-1.09 258.34-3.20L258.34-3.20L258.34-3.20Q255.94-5.31 254.56-8.51L254.56-8.51L254.56-8.51Q253.18-11.71 253.18-16L253.18-16L253.18-16Q253.18-20.22 254.56-23.26L254.56-23.26L254.56-23.26Q255.94-26.30 258.18-28.26L258.18-28.26L258.18-28.26Q260.42-30.21 263.30-31.14L263.30-31.14L263.30-31.14Q266.18-32.06 269.18-32.06L269.18-32.06L269.18-32.06Q272.58-32.06 275.36-31.04L275.36-31.04L275.36-31.04Q278.14-30.02 280.16-28.22L280.16-28.22L280.16-28.22Q282.18-26.43 283.30-23.94L283.30-23.94L283.30-23.94Q284.42-21.44 284.42-18.50L284.42-18.50L284.42-18.50Q284.42-16.32 283.20-15.17L283.20-15.17L283.20-15.17Q281.98-14.02 279.81-13.70L279.81-13.70L264-11.33L264-11.33Q264.70-9.22 266.88-8.16L266.88-8.16L266.88-8.16Q269.06-7.10 271.87-7.10L271.87-7.10L271.87-7.10Q274.50-7.10 276.83-7.78L276.83-7.78L276.83-7.78Q279.17-8.45 280.64-9.34L280.64-9.34L280.64-9.34Q281.66-8.70 282.37-7.55L282.37-7.55L282.37-7.55Q283.07-6.40 283.07-5.12L283.07-5.12L283.07-5.12Q283.07-2.24 280.38-0.83L280.38-0.83L280.38-0.83Q278.34 0.26 275.78 0.64L275.78 0.64L275.78 0.64Q273.22 1.02 270.98 1.02ZM269.18-24.13L269.18-24.13L269.18-24.13Q267.65-24.13 266.53-23.62L266.53-23.62L266.53-23.62Q265.41-23.10 264.70-22.30L264.70-22.30L264.70-22.30Q264-21.50 263.65-20.51L263.65-20.51L263.65-20.51Q263.30-19.52 263.23-18.50L263.23-18.50L274.18-20.29L274.18-20.29Q273.98-21.57 272.77-22.85L272.77-22.85L272.77-22.85Q271.55-24.13 269.18-24.13ZM303.17-11.90L289.47-11.90L289.47-11.90Q289.02-12.61 288.64-13.76L288.64-13.76L288.64-13.76Q288.26-14.91 288.26-16.19L288.26-16.19L288.26-16.19Q288.26-18.56 289.34-19.62L289.34-19.62L289.34-19.62Q290.43-20.67 292.16-20.67L292.16-20.67L305.86-20.67L305.86-20.67Q306.24-19.97 306.66-18.82L306.66-18.82L306.66-18.82Q307.07-17.66 307.07-16.38L307.07-16.38L307.07-16.38Q307.07-14.02 305.98-12.96L305.98-12.96L305.98-12.96Q304.90-11.90 303.17-11.90L303.17-11.90ZM323.39-37.18L323.39-0.06L323.39-0.06Q322.69 0.06 321.31 0.29L321.31 0.29L321.31 0.29Q319.94 0.51 318.53 0.51L318.53 0.51L318.53 0.51Q317.12 0.51 316 0.32L316 0.32L316 0.32Q314.88 0.13 314.11-0.45L314.11-0.45L314.11-0.45Q313.34-1.02 312.93-2.02L312.93-2.02L312.93-2.02Q312.51-3.01 312.51-4.61L312.51-4.61L312.51-41.73L312.51-41.73Q313.22-41.86 314.59-42.08L314.59-42.08L314.59-42.08Q315.97-42.30 317.38-42.30L317.38-42.30L317.38-42.30Q318.78-42.30 319.90-42.11L319.90-42.11L319.90-42.11Q321.02-41.92 321.79-41.34L321.79-41.34L321.79-41.34Q322.56-40.77 322.98-39.78L322.98-39.78L322.98-39.78Q323.39-38.78 323.39-37.18L323.39-37.18ZM362.43-15.55L362.43-15.55L362.43-15.55Q362.43-11.58 361.22-8.48L361.22-8.48L361.22-8.48Q360.00-5.38 357.79-3.26L357.79-3.26L357.79-3.26Q355.58-1.15 352.51-0.06L352.51-0.06L352.51-0.06Q349.44 1.02 345.66 1.02L345.66 1.02L345.66 1.02Q341.89 1.02 338.82-0.13L338.82-0.13L338.82-0.13Q335.74-1.28 333.54-3.42L333.54-3.42L333.54-3.42Q331.33-5.57 330.11-8.64L330.11-8.64L330.11-8.64Q328.90-11.71 328.90-15.55L328.90-15.55L328.90-15.55Q328.90-19.33 330.11-22.40L330.11-22.40L330.11-22.40Q331.33-25.47 333.54-27.62L333.54-27.62L333.54-27.62Q335.74-29.76 338.82-30.91L338.82-30.91L338.82-30.91Q341.89-32.06 345.66-32.06L345.66-32.06L345.66-32.06Q349.44-32.06 352.51-30.88L352.51-30.88L352.51-30.88Q355.58-29.70 357.79-27.55L357.79-27.55L357.79-27.55Q360.00-25.41 361.22-22.34L361.22-22.34L361.22-22.34Q362.43-19.26 362.43-15.55ZM340.03-15.55L340.03-15.55L340.03-15.55Q340.03-11.65 341.54-9.57L341.54-9.57L341.54-9.57Q343.04-7.49 345.73-7.49L345.73-7.49L345.73-7.49Q348.42-7.49 349.86-9.60L349.86-9.60L349.86-9.60Q351.30-11.71 351.30-15.55L351.30-15.55L351.30-15.55Q351.30-19.39 349.82-21.47L349.82-21.47L349.82-21.47Q348.35-23.55 345.66-23.55L345.66-23.55L345.66-23.55Q342.98-23.55 341.50-21.47L341.50-21.47L341.50-21.47Q340.03-19.39 340.03-15.55ZM382.91-32.06L382.91-32.06L382.91-32.06Q386.56-32.06 389.54-31.14L389.54-31.14L389.54-31.14Q392.51-30.21 394.56-28.74L394.56-28.74L394.56-28.74Q395.84-27.84 396.58-26.75L396.58-26.75L396.58-26.75Q397.31-25.66 397.31-23.94L397.31-23.94L397.31-1.54L397.31-1.54Q397.31 1.86 396.03 4.32L396.03 4.32L396.03 4.32Q394.75 6.78 392.54 8.42L392.54 8.42L392.54 8.42Q390.34 10.05 387.36 10.82L387.36 10.82L387.36 10.82Q384.38 11.58 380.99 11.58L380.99 11.58L380.99 11.58Q375.17 11.58 371.84 10.02L371.84 10.02L371.84 10.02Q368.51 8.45 368.51 4.93L368.51 4.93L368.51 4.93Q368.51 3.46 369.12 2.34L369.12 2.34L369.12 2.34Q369.73 1.22 370.50 0.64L370.50 0.64L370.50 0.64Q372.35 1.66 374.69 2.37L374.69 2.37L374.69 2.37Q377.02 3.07 379.52 3.07L379.52 3.07L379.52 3.07Q382.98 3.07 385.02 1.92L385.02 1.92L385.02 1.92Q387.07 0.77 387.07-1.79L387.07-1.79L387.07-2.82L387.07-2.82Q384.45-1.66 380.67-1.66L380.67-1.66L380.67-1.66Q377.79-1.66 375.20-2.53L375.20-2.53L375.20-2.53Q372.61-3.39 370.66-5.22L370.66-5.22L370.66-5.22Q368.70-7.04 367.52-9.92L367.52-9.92L367.52-9.92Q366.34-12.80 366.34-16.77L366.34-16.77L366.34-16.77Q366.34-20.67 367.58-23.55L367.58-23.55L367.58-23.55Q368.83-26.43 371.04-28.32L371.04-28.32L371.04-28.32Q373.25-30.21 376.29-31.14L376.29-31.14L376.29-31.14Q379.33-32.06 382.91-32.06ZM386.88-11.01L386.88-22.78L386.88-22.78Q386.43-23.04 385.57-23.30L385.57-23.30L385.57-23.30Q384.70-23.55 383.42-23.55L383.42-23.55L383.42-23.55Q380.29-23.55 378.72-21.79L378.72-21.79L378.72-21.79Q377.15-20.03 377.15-16.77L377.15-16.77L377.15-16.77Q377.15-13.06 378.72-11.42L378.72-11.42L378.72-11.42Q380.29-9.79 382.72-9.79L382.72-9.79L382.72-9.79Q385.34-9.79 386.88-11.01L386.88-11.01ZM419.20-32.06L419.20-32.06L419.20-32.06Q422.85-32.06 425.82-31.14L425.82-31.14L425.82-31.14Q428.80-30.21 430.85-28.74L430.85-28.74L430.85-28.74Q432.13-27.84 432.86-26.75L432.86-26.75L432.86-26.75Q433.60-25.66 433.60-23.94L433.60-23.94L433.60-1.54L433.60-1.54Q433.60 1.86 432.32 4.32L432.32 4.32L432.32 4.32Q431.04 6.78 428.83 8.42L428.83 8.42L428.83 8.42Q426.62 10.05 423.65 10.82L423.65 10.82L423.65 10.82Q420.67 11.58 417.28 11.58L417.28 11.58L417.28 11.58Q411.46 11.58 408.13 10.02L408.13 10.02L408.13 10.02Q404.80 8.45 404.80 4.93L404.80 4.93L404.80 4.93Q404.80 3.46 405.41 2.34L405.41 2.34L405.41 2.34Q406.02 1.22 406.78 0.64L406.78 0.64L406.78 0.64Q408.64 1.66 410.98 2.37L410.98 2.37L410.98 2.37Q413.31 3.07 415.81 3.07L415.81 3.07L415.81 3.07Q419.26 3.07 421.31 1.92L421.31 1.92L421.31 1.92Q423.36 0.77 423.36-1.79L423.36-1.79L423.36-2.82L423.36-2.82Q420.74-1.66 416.96-1.66L416.96-1.66L416.96-1.66Q414.08-1.66 411.49-2.53L411.49-2.53L411.49-2.53Q408.90-3.39 406.94-5.22L406.94-5.22L406.94-5.22Q404.99-7.04 403.81-9.92L403.81-9.92L403.81-9.92Q402.62-12.80 402.62-16.77L402.62-16.77L402.62-16.77Q402.62-20.67 403.87-23.55L403.87-23.55L403.87-23.55Q405.12-26.43 407.33-28.32L407.33-28.32L407.33-28.32Q409.54-30.21 412.58-31.14L412.58-31.14L412.58-31.14Q415.62-32.06 419.20-32.06ZM423.17-11.01L423.17-22.78L423.17-22.78Q422.72-23.04 421.86-23.30L421.86-23.30L421.86-23.30Q420.99-23.55 419.71-23.55L419.71-23.55L419.71-23.55Q416.58-23.55 415.01-21.79L415.01-21.79L415.01-21.79Q413.44-20.03 413.44-16.77L413.44-16.77L413.44-16.77Q413.44-13.06 415.01-11.42L415.01-11.42L415.01-11.42Q416.58-9.79 419.01-9.79L419.01-9.79L419.01-9.79Q421.63-9.79 423.17-11.01L423.17-11.01ZM456.77 1.02L456.77 1.02L456.77 1.02Q452.99 1.02 449.76-0.03L449.76-0.03L449.76-0.03Q446.53-1.09 444.13-3.20L444.13-3.20L444.13-3.20Q441.73-5.31 440.35-8.51L440.35-8.51L440.35-8.51Q438.98-11.71 438.98-16L438.98-16L438.98-16Q438.98-20.22 440.35-23.26L440.35-23.26L440.35-23.26Q441.73-26.30 443.97-28.26L443.97-28.26L443.97-28.26Q446.21-30.21 449.09-31.14L449.09-31.14L449.09-31.14Q451.97-32.06 454.98-32.06L454.98-32.06L454.98-32.06Q458.37-32.06 461.15-31.04L461.15-31.04L461.15-31.04Q463.94-30.02 465.95-28.22L465.95-28.22L465.95-28.22Q467.97-26.43 469.09-23.94L469.09-23.94L469.09-23.94Q470.21-21.44 470.21-18.50L470.21-18.50L470.21-18.50Q470.21-16.32 468.99-15.17L468.99-15.17L468.99-15.17Q467.78-14.02 465.60-13.70L465.60-13.70L449.79-11.33L449.79-11.33Q450.50-9.22 452.67-8.16L452.67-8.16L452.67-8.16Q454.85-7.10 457.66-7.10L457.66-7.10L457.66-7.10Q460.29-7.10 462.62-7.78L462.62-7.78L462.62-7.78Q464.96-8.45 466.43-9.34L466.43-9.34L466.43-9.34Q467.46-8.70 468.16-7.55L468.16-7.55L468.16-7.55Q468.86-6.40 468.86-5.12L468.86-5.12L468.86-5.12Q468.86-2.24 466.18-0.83L466.18-0.83L466.18-0.83Q464.13 0.26 461.57 0.64L461.57 0.64L461.57 0.64Q459.01 1.02 456.77 1.02ZM454.98-24.13L454.98-24.13L454.98-24.13Q453.44-24.13 452.32-23.62L452.32-23.62L452.32-23.62Q451.20-23.10 450.50-22.30L450.50-22.30L450.50-22.30Q449.79-21.50 449.44-20.51L449.44-20.51L449.44-20.51Q449.09-19.52 449.02-18.50L449.02-18.50L459.97-20.29L459.97-20.29Q459.78-21.57 458.56-22.85L458.56-22.85L458.56-22.85Q457.34-24.13 454.98-24.13ZM486.34-21.89L486.34-0.06L486.34-0.06Q485.70 0.13 484.32 0.32L484.32 0.32L484.32 0.32Q482.94 0.51 481.47 0.51L481.47 0.51L481.47 0.51Q480.06 0.51 478.94 0.32L478.94 0.32L478.94 0.32Q477.82 0.13 477.06-0.45L477.06-0.45L477.06-0.45Q476.29-1.02 475.87-2.02L475.87-2.02L475.87-2.02Q475.46-3.01 475.46-4.61L475.46-4.61L475.46-23.81L475.46-23.81Q475.46-25.28 476.00-26.34L476.00-26.34L476.00-26.34Q476.54-27.39 477.57-28.22L477.57-28.22L477.57-28.22Q478.59-29.06 480.10-29.73L480.10-29.73L480.10-29.73Q481.60-30.40 483.33-30.91L483.33-30.91L483.33-30.91Q485.06-31.42 486.91-31.71L486.91-31.71L486.91-31.71Q488.77-32 490.62-32L490.62-32L490.62-32Q493.70-32 495.49-30.82L495.49-30.82L495.49-30.82Q497.28-29.63 497.28-26.94L497.28-26.94L497.28-26.94Q497.28-26.05 497.02-25.18L497.02-25.18L497.02-25.18Q496.77-24.32 496.38-23.62L496.38-23.62L496.38-23.62Q495.04-23.62 493.63-23.49L493.63-23.49L493.63-23.49Q492.22-23.36 490.88-23.10L490.88-23.10L490.88-23.10Q489.54-22.85 488.35-22.56L488.35-22.56L488.35-22.56Q487.17-22.27 486.34-21.89L486.34-21.89Z" fill="url(#editing-rainbow-gradient)"></path></g></g><style>text {
  font-size: 64px;
  font-family: Arial Black;
  dominant-baseline: central;
  text-anchor: middle;
}</style></svg>